<?xml version="1.0" standalone="no"?><!DOCTYPE svg PUBLIC "-//W3C//DTD SVG 1.1//EN" "http://www.w3.org/Graphics/SVG/1.1/DTD/svg11.dtd"><svg t="1530515221720" class="icon" style="" viewBox="0 0 1024 1024" version="1.1" xmlns="http://www.w3.org/2000/svg" p-id="4458" xmlns:xlink="http://www.w3.org/1999/xlink" width="200" height="200"><defs><style type="text/css"></style></defs><path d="M337.28 245.12c-14.08 0-33.92 8.32-43.52 17.92l-45.44 45.44C238.08 318.72 230.4 337.92 230.4 352v394.24c0 14.08 11.52 25.6 25.6 25.6h505.6c14.08 0 25.6-11.52 25.6-25.6V270.72c0-14.08-11.52-25.6-25.6-25.6H337.28z" fill="#ffffff" p-id="4459" data-spm-anchor-id="a313x.7781069.0.i6" class="selected"></path><path d="M760.32 785.28h-505.6c-21.12 0-38.4-17.28-38.4-38.4V352.64c0-17.92 9.6-40.32 21.76-52.48l45.44-45.44c12.16-12.16 35.2-21.76 52.48-21.76h423.68c21.12 0 38.4 17.28 38.4 38.4v476.16c0.64 20.48-16 37.76-37.76 37.76zM337.28 257.92c-10.88 0-26.88 7.04-34.56 14.08l-45.44 45.44C249.6 325.12 243.2 341.76 243.2 352v394.24c0 7.04 5.76 12.8 12.8 12.8h505.6c7.04 0 12.8-5.76 12.8-12.8V270.72c0-7.04-5.76-12.8-12.8-12.8H337.28z" fill="#708DB7" p-id="4460"></path><path d="M691.84 494.72c0-19.2-10.88-36.48-26.24-45.44h-3.84c2.56-6.4 3.84-12.8 3.84-20.48 0-28.8-23.68-52.48-52.48-52.48h-1.92c-5.76-22.4-26.24-39.68-50.56-39.68-28.8 0-52.48 23.68-52.48 52.48 0-28.8-23.68-52.48-52.48-52.48-24.32 0-44.8 16.64-50.56 39.68H403.2c-28.8 0-52.48 23.68-52.48 52.48 0 7.04 1.28 14.08 3.84 19.84h-3.84c-16 8.96-26.24 26.24-26.24 45.44 0 21.12 12.8 39.68 30.72 48-2.56 5.12-4.48 11.52-4.48 17.92 0 17.28 10.88 32 26.24 37.12h1.92c-1.28 5.12-1.92 10.24-1.92 15.36 0 36.48 29.44 65.92 65.92 65.92 36.48 0 65.92-29.44 65.92-65.92 0 36.48 29.44 65.92 65.92 65.92s65.92-29.44 65.92-65.92c0-5.12-0.64-10.24-1.92-15.36h1.92c15.36-5.12 26.24-19.84 26.24-37.12 0-6.4-1.92-12.8-4.48-17.92 16.64-7.68 29.44-26.24 29.44-47.36z m-131.2-52.48v1.92-1.92z" fill="#FFD8C5" p-id="4461"></path><path d="M344.96 432.64c0 3.84 0.64 7.68 1.28 11.52-16.64 11.52-26.24 30.72-26.24 51.2s10.24 39.68 26.24 51.2c-0.64 3.84-1.28 7.68-1.28 11.52 0 17.92 10.24 34.56 25.6 43.52 0 1.92-0.64 4.48-0.64 6.4 0 41.6 33.92 75.52 75.52 75.52 26.24 0 49.28-13.44 62.72-33.92 13.44 20.48 36.48 33.92 62.72 33.92 41.6 0 75.52-33.92 75.52-75.52 0-1.92 0-4.48-0.64-6.4 15.36-8.96 25.6-25.6 25.6-43.52 0-3.84-0.64-7.68-1.28-11.52 16.64-11.52 26.24-30.72 26.24-51.2s-10.24-39.04-26.24-51.2c0.64-3.84 1.28-7.68 1.28-11.52 0-32-24.32-58.24-55.04-62.08-9.6-22.4-32-38.4-57.6-38.4-20.48 0-39.04 10.24-49.92 25.6-11.52-15.36-29.44-25.6-49.92-25.6-26.24 0-48 16-57.6 38.4-32.64 3.84-56.32 30.08-56.32 62.08z m213.12-75.52c20.48 0 37.76 16.64 37.76 37.76 0 20.48-16.64 37.76-37.12 37.76v24.96c33.92 0 60.8-26.88 62.08-60.16 14.72 5.12 25.6 19.2 25.6 35.2 0 20.48-16.64 37.12-37.12 37.12v24.96c21.12 0 39.68-10.24 51.2-26.24 7.04 7.04 11.52 16.64 11.52 26.88 0 14.72-8.96 28.16-22.4 33.92l-12.16 5.76 5.76 11.52c1.92 3.84 3.2 7.68 3.2 11.52 0 7.04-3.2 12.8-7.68 17.28C626.56 550.4 600.96 531.2 571.52 531.2v25.6c27.52 0 49.92 24.32 49.92 51.84s-22.4 49.92-49.92 49.92-49.92-22.4-49.92-49.92V394.88c-1.28-20.48 16-37.76 36.48-37.76zM395.52 396.8c1.28 33.28 30.08 60.8 64 60.8l0.64-24.96c-20.48 0-39.68-17.28-39.68-37.76s16.64-37.76 37.76-37.76 37.76 16.64 37.76 37.76V608c0 27.52-22.4 49.92-49.92 49.92s-49.92-22.4-49.92-49.92 24.96-51.2 52.48-51.2v-25.6c-30.08 0-58.24 18.56-70.4 43.52-4.48-4.48-7.68-10.88-7.68-17.28 0-3.84 1.28-7.68 3.2-11.52l5.76-11.52-12.16-5.76c-13.44-6.4-22.4-19.84-22.4-33.92 0-10.24 4.48-19.84 11.52-26.88 11.52 16 26.88 26.88 48 26.88l0.64-24.96c-20.48 0-35.2-16.64-35.2-37.12 0-16.64 10.88-30.72 25.6-35.84z" fill="#708DB7" p-id="4462"></path><path d="M460.16 444.8m-12.8 0a12.8 12.8 0 1 0 25.6 0 12.8 12.8 0 1 0-25.6 0Z" fill="#708DB7" p-id="4463"></path><path d="M404.48 481.92m-12.8 0a12.8 12.8 0 1 0 25.6 0 12.8 12.8 0 1 0-25.6 0Z" fill="#708DB7" p-id="4464"></path><path d="M448 544m-12.8 0a12.8 12.8 0 1 0 25.6 0 12.8 12.8 0 1 0-25.6 0Z" fill="#708DB7" p-id="4465"></path><path d="M559.36 444.8m-12.8 0a12.8 12.8 0 1 0 25.6 0 12.8 12.8 0 1 0-25.6 0Z" fill="#708DB7" p-id="4466"></path><path d="M608.64 481.92m-12.8 0a12.8 12.8 0 1 0 25.6 0 12.8 12.8 0 1 0-25.6 0Z" fill="#708DB7" p-id="4467"></path><path d="M571.52 544m-12.8 0a12.8 12.8 0 1 0 25.6 0 12.8 12.8 0 1 0-25.6 0Z" fill="#708DB7" p-id="4468"></path><path d="M828.16 328.96c0-7.04 5.76-12.16 12.16-12.16h55.68c7.04 0 12.16 5.76 12.16 12.16 0 7.04-5.76 12.16-12.16 12.16h-55.68c-7.04 0.64-12.16-5.12-12.16-12.16z" fill="#708DB7" p-id="4469"></path><path d="M933.12 330.88m-30.72 0a30.72 30.72 0 1 0 61.44 0 30.72 30.72 0 1 0-61.44 0Z" fill="#FFF27D" p-id="4470"></path><path d="M933.12 373.76a42.88 42.88 0 1 1 0-85.76 42.88 42.88 0 0 1 0 85.76z m0-60.8c-10.24 0-17.92 8.32-17.92 17.92 0 10.24 8.32 17.92 17.92 17.92s17.92-8.32 17.92-17.92c0-9.6-7.68-17.92-17.92-17.92zM828.16 442.88c0-7.04 5.76-12.16 12.16-12.16h55.68c7.04 0 12.16 5.76 12.16 12.16 0 7.04-5.76 12.16-12.16 12.16h-55.68c-7.04 0-12.16-5.76-12.16-12.16z" fill="#708DB7" p-id="4471"></path><path d="M933.12 444.16m-30.72 0a30.72 30.72 0 1 0 61.44 0 30.72 30.72 0 1 0-61.44 0Z" fill="#FFF27D" p-id="4472"></path><path d="M933.12 487.68a42.88 42.88 0 1 1 0-85.76 42.88 42.88 0 0 1 0 85.76z m0-61.44c-10.24 0-17.92 8.32-17.92 17.92s8.32 17.92 17.92 17.92 17.92-8.32 17.92-17.92-7.68-17.92-17.92-17.92zM828.16 556.16c0-7.04 5.76-12.16 12.16-12.16h55.68c7.04 0 12.16 5.76 12.16 12.16 0 7.04-5.76 12.16-12.16 12.16h-55.68c-7.04 0-12.16-5.12-12.16-12.16z" fill="#708DB7" p-id="4473"></path><path d="M934.4 558.08m-30.72 0a30.72 30.72 0 1 0 61.44 0 30.72 30.72 0 1 0-61.44 0Z" fill="#FFF27D" p-id="4474"></path><path d="M934.4 600.96a42.88 42.88 0 1 1 0-85.76 42.88 42.88 0 0 1 0 85.76z m0-61.44c-10.24 0-17.92 8.32-17.92 17.92s8.32 17.92 17.92 17.92 17.92-8.32 17.92-17.92-7.68-17.92-17.92-17.92zM828.16 669.44c0-7.04 5.76-12.16 12.16-12.16h55.68c7.04 0 12.16 5.76 12.16 12.16 0 7.04-5.76 12.16-12.16 12.16h-55.68c-7.04 0.64-12.16-5.12-12.16-12.16z" fill="#708DB7" p-id="4475"></path><path d="M933.12 671.36m-30.72 0a30.72 30.72 0 1 0 61.44 0 30.72 30.72 0 1 0-61.44 0Z" fill="#FFF27D" p-id="4476"></path><path d="M933.12 714.24a42.88 42.88 0 1 1 0-85.76 42.88 42.88 0 0 1 0 85.76z m0-60.8c-10.24 0-17.92 8.32-17.92 17.92s8.32 17.92 17.92 17.92 17.92-8.32 17.92-17.92-7.68-17.92-17.92-17.92zM185.6 328.96c0-7.04-5.76-12.16-12.16-12.16h-55.68c-7.04 0-12.16 5.76-12.16 12.16 0 7.04 5.76 12.16 12.16 12.16H172.8c7.04 0.64 12.8-5.12 12.8-12.16z" fill="#708DB7" p-id="4477"></path><path d="M80 330.88m-30.72 0a30.72 30.72 0 1 0 61.44 0 30.72 30.72 0 1 0-61.44 0Z" fill="#FFF27D" p-id="4478"></path><path d="M37.12 330.88a42.88 42.88 0 1 1 85.76 0 42.88 42.88 0 0 1-85.76 0z m24.96 0c0 10.24 8.32 17.92 17.92 17.92s17.92-8.32 17.92-17.92c0-10.24-8.32-17.92-17.92-17.92s-17.92 8.32-17.92 17.92z" fill="#708DB7" p-id="4479"></path><path d="M185.6 442.88c0-7.04-5.76-12.16-12.16-12.16h-55.68c-7.04 0-12.16 5.76-12.16 12.16 0 7.04 5.76 12.16 12.16 12.16h55.68c6.4 0 12.16-5.76 12.16-12.16z" fill="#708DB7" p-id="4480"></path><path d="M80 444.16m-30.72 0a30.72 30.72 0 1 0 61.44 0 30.72 30.72 0 1 0-61.44 0Z" fill="#FFF27D" p-id="4481"></path><path d="M37.12 444.16a42.88 42.88 0 1 1 85.76 0 42.88 42.88 0 0 1-85.76 0z m24.96 0c0 10.24 8.32 17.92 17.92 17.92s17.92-8.32 17.92-17.92-8.32-17.92-17.92-17.92-17.92 8.32-17.92 17.92z" fill="#708DB7" p-id="4482"></path><path d="M185.6 556.16c0-7.04-5.76-12.16-12.16-12.16h-55.68c-7.04 0-12.16 5.76-12.16 12.16 0 7.04 5.76 12.16 12.16 12.16H172.8c7.04 0 12.8-5.12 12.8-12.16z" fill="#708DB7" p-id="4483"></path><path d="M78.72 558.08m-30.72 0a30.72 30.72 0 1 0 61.44 0 30.72 30.72 0 1 0-61.44 0Z" fill="#FFF27D" p-id="4484"></path><path d="M35.84 558.08a42.88 42.88 0 1 1 85.76 0 42.88 42.88 0 0 1-85.76 0z m24.32 0c0 10.24 8.32 17.92 17.92 17.92s17.92-8.32 17.92-17.92-8.32-17.92-17.92-17.92-17.92 7.68-17.92 17.92z" fill="#708DB7" p-id="4485"></path><path d="M185.6 669.44c0-7.04-5.76-12.16-12.16-12.16h-55.68c-7.04 0-12.16 5.76-12.16 12.16 0 7.04 5.76 12.16 12.16 12.16H172.8c7.04 0.64 12.8-5.12 12.8-12.16z" fill="#708DB7" p-id="4486"></path><path d="M80 671.36m-30.72 0a30.72 30.72 0 1 0 61.44 0 30.72 30.72 0 1 0-61.44 0Z" fill="#FFF27D" p-id="4487"></path><path d="M37.12 671.36a42.88 42.88 0 1 1 85.76 0 42.88 42.88 0 0 1-85.76 0z m24.96 0c0 10.24 8.32 17.92 17.92 17.92s17.92-8.32 17.92-17.92-8.32-17.92-17.92-17.92-17.92 7.68-17.92 17.92z" fill="#708DB7" p-id="4488"></path><path d="M678.4 204.8c7.04 0 12.16-5.76 12.16-12.16v-55.68c0-7.04-5.76-12.16-12.16-12.16-7.04 0-12.16 5.76-12.16 12.16V192c0 7.04 5.76 12.8 12.16 12.8z" fill="#708DB7" p-id="4489"></path><path d="M677.12 99.84m-30.72 0a30.72 30.72 0 1 0 61.44 0 30.72 30.72 0 1 0-61.44 0Z" fill="#FFF27D" p-id="4490"></path><path d="M677.12 56.32a42.88 42.88 0 1 1 0 85.76 42.88 42.88 0 0 1 0-85.76z m0 24.96c-10.24 0-17.92 8.32-17.92 17.92s8.32 17.92 17.92 17.92 17.92-8.32 17.92-17.92-8.32-17.92-17.92-17.92z" fill="#708DB7" p-id="4491"></path><path d="M565.12 204.8c7.04 0 12.16-5.76 12.16-12.16v-55.68c0-7.04-5.76-12.16-12.16-12.16-7.04 0-12.16 5.76-12.16 12.16V192c0 7.04 5.12 12.8 12.16 12.8z" fill="#708DB7" p-id="4492"></path><path d="M563.2 99.84m-30.72 0a30.72 30.72 0 1 0 61.44 0 30.72 30.72 0 1 0-61.44 0Z" fill="#FFF27D" p-id="4493"></path><path d="M563.2 56.32a42.88 42.88 0 1 1 0 85.76 42.88 42.88 0 0 1 0-85.76z m0 24.96c-10.24 0-17.92 8.32-17.92 17.92s8.32 17.92 17.92 17.92 17.92-8.32 17.92-17.92-7.68-17.92-17.92-17.92z" fill="#708DB7" p-id="4494"></path><path d="M451.84 204.8c7.04 0 12.16-5.76 12.16-12.16v-55.68c0-7.04-5.76-12.16-12.16-12.16-7.04 0-12.16 5.76-12.16 12.16V192c-0.64 7.04 5.12 12.8 12.16 12.8z" fill="#708DB7" p-id="4495"></path><path d="M449.92 97.92m-30.72 0a30.72 30.72 0 1 0 61.44 0 30.72 30.72 0 1 0-61.44 0Z" fill="#FFF27D" p-id="4496"></path><path d="M449.92 55.04a42.88 42.88 0 1 1 0 85.76 42.88 42.88 0 0 1 0-85.76z m0 24.96c-10.24 0-17.92 8.32-17.92 17.92s8.32 17.92 17.92 17.92 17.92-8.32 17.92-17.92-7.68-17.92-17.92-17.92z" fill="#708DB7" p-id="4497"></path><path d="M337.92 204.8c7.04 0 12.16-5.76 12.16-12.16v-55.68c0-7.04-5.76-12.16-12.16-12.16-7.04 0-12.16 5.76-12.16 12.16V192c0 7.04 5.76 12.8 12.16 12.8z" fill="#708DB7" p-id="4498"></path><path d="M336.64 99.84m-30.72 0a30.72 30.72 0 1 0 61.44 0 30.72 30.72 0 1 0-61.44 0Z" fill="#FFF27D" p-id="4499"></path><path d="M336.64 56.32a42.88 42.88 0 1 1 0 85.76 42.88 42.88 0 0 1 0-85.76z m0 24.96c-10.24 0-17.92 8.32-17.92 17.92s8.32 17.92 17.92 17.92c10.24 0 17.92-8.32 17.92-17.92s-8.32-17.92-17.92-17.92z" fill="#708DB7" p-id="4500"></path><path d="M678.4 816.64c7.04 0 12.16 5.76 12.16 12.16v55.68c0 7.04-5.76 12.16-12.16 12.16-7.04 0-12.16-5.76-12.16-12.16v-55.68c0-7.04 5.76-12.16 12.16-12.16z" fill="#708DB7" p-id="4501"></path><path d="M677.12 921.6m-30.72 0a30.72 30.72 0 1 0 61.44 0 30.72 30.72 0 1 0-61.44 0Z" fill="#FFF27D" p-id="4502"></path><path d="M633.6 921.6a42.88 42.88 0 1 1 42.88 42.88c-23.04 0-42.88-19.2-42.88-42.88z m61.44 0c0-10.24-8.32-17.92-17.92-17.92s-17.92 8.32-17.92 17.92 8.32 17.92 17.92 17.92 17.92-8.32 17.92-17.92z" fill="#708DB7" p-id="4503"></path><path d="M565.12 816.64c7.04 0 12.16 5.76 12.16 12.16v55.68c0 7.04-5.76 12.16-12.16 12.16-7.04 0-12.16-5.76-12.16-12.16v-55.68c0-7.04 5.12-12.16 12.16-12.16z" fill="#708DB7" p-id="4504"></path><path d="M563.2 921.6m-30.72 0a30.72 30.72 0 1 0 61.44 0 30.72 30.72 0 1 0-61.44 0Z" fill="#FFF27D" p-id="4505"></path><path d="M520.32 921.6a42.88 42.88 0 1 1 85.76 0 42.88 42.88 0 0 1-85.76 0z m61.44 0c0-10.24-8.32-17.92-17.92-17.92s-17.92 8.32-17.92 17.92 8.32 17.92 17.92 17.92 17.92-8.32 17.92-17.92z" fill="#708DB7" p-id="4506"></path><path d="M451.84 816.64c7.04 0 12.16 5.76 12.16 12.16v55.68c0 7.04-5.76 12.16-12.16 12.16-7.04 0-12.16-5.76-12.16-12.16v-55.68c-0.64-7.04 5.12-12.16 12.16-12.16z" fill="#708DB7" p-id="4507"></path><path d="M449.92 922.88m-30.72 0a30.72 30.72 0 1 0 61.44 0 30.72 30.72 0 1 0-61.44 0Z" fill="#FFF27D" p-id="4508"></path><path d="M407.04 922.88a42.88 42.88 0 1 1 85.76 0 42.88 42.88 0 0 1-85.76 0z m60.8 0c0-10.24-8.32-17.92-17.92-17.92s-17.92 8.32-17.92 17.92 8.32 17.92 17.92 17.92 17.92-7.68 17.92-17.92z" fill="#708DB7" p-id="4509"></path><path d="M337.92 816.64c7.04 0 12.16 5.76 12.16 12.16v55.68c0 7.04-5.76 12.16-12.16 12.16-7.04 0-12.16-5.76-12.16-12.16v-55.68c0-7.04 5.76-12.16 12.16-12.16z" fill="#708DB7" p-id="4510"></path><path d="M336.64 921.6m-30.72 0a30.72 30.72 0 1 0 61.44 0 30.72 30.72 0 1 0-61.44 0Z" fill="#FFF27D" p-id="4511"></path><path d="M293.76 921.6a42.88 42.88 0 1 1 85.76 0 42.88 42.88 0 0 1-85.76 0z m60.8 0c0-10.24-8.32-17.92-17.92-17.92-10.24 0-17.92 8.32-17.92 17.92s8.32 17.92 17.92 17.92c9.6 0 17.92-8.32 17.92-17.92z" fill="#708DB7" p-id="4512"></path></svg>