<?xml version="1.0" standalone="no"?><!DOCTYPE svg PUBLIC "-//W3C//DTD SVG 1.1//EN" "http://www.w3.org/Graphics/SVG/1.1/DTD/svg11.dtd"><svg t="1530698202433" class="icon" style="" viewBox="0 0 1024 1024" version="1.1" xmlns="http://www.w3.org/2000/svg" p-id="6910" xmlns:xlink="http://www.w3.org/1999/xlink" width="200" height="200"><defs><style type="text/css"></style></defs><path d="M874.505401 545.758845C783.045501 637.218742 642.784361 650.556643 535.494258 586.298907L485.492917 636.300247 456.290598 665.502569 431.896555 689.89661 383.108468 738.684699 433.282191 788.85842 482.170285 837.746512C495.668726 851.244957 517.537568 851.269955 531.009691 837.797832 544.481814 824.325709 544.456812 802.456869 530.958371 788.95843L482.070276 740.070332 551.384993 670.755615C676.281759 720.043745 823.2079 694.835163 923.394811 594.648254 1041.900273 476.142788 1055.578994 292.208438 965.045484 156.747678L915.044147 206.749019C979.304514 314.039121 965.965295 454.298947 874.505401 545.758845ZM483.521708 936.742535 483.555921 936.708321 384.494104 837.646508 334.320381 787.47278 285.532294 836.260868 335.706017 886.43459 434.767834 985.49641 434.802048 985.462196C448.689993 998.679038 470.345659 998.809312 483.608556 985.546411 496.870136 972.284835 496.739863 950.631797 483.521708 936.742535ZM602.406151 272.375285C561.988467 312.79297 562.629307 378.96533 603.840476 420.1765 645.051644 461.387669 711.222689 462.029825 751.641689 421.610825 792.059376 381.19314 791.41722 315.022095 750.206054 273.810925 708.994881 232.599756 642.823835 231.957601 602.406151 272.375285ZM701.417965 322.599012C714.920353 336.101401 714.941408 357.966295 701.469285 371.438418 687.997162 384.910541 666.132265 384.889486 652.629877 371.387098 639.128805 357.886024 639.107751 336.021131 652.579876 322.549008 666.051999 309.076885 687.91689 309.097939 701.417965 322.599012ZM187.956123 933.839675C161.010561 960.785233 117.278139 960.737862 90.278626 933.738347 63.279113 906.738839 63.231741 863.006413 90.177303 836.060855L358.514409 567.723747 387.716729 538.521428 437.718069 488.520087C373.460333 381.229984 386.798234 240.968843 478.258132 149.508946 569.718029 58.049048 709.97917 44.711146 817.267958 108.970199L867.269301 58.968858C731.809854-31.563333 547.874188-17.885931 429.368722 100.619536 329.181815 200.806442 303.97455 347.733904 353.261359 472.629352L40.00358 785.887134C-13.886228 839.776938-13.224333 927.814193 41.487908 982.526435 96.201465 1037.239996 184.237405 1037.903207 238.12853 984.012078L286.916617 935.223997 236.742894 885.050269 187.954807 933.838357 187.956123 933.839675Z" p-id="6911" fill="#e6e6e6"></path></svg>