<?xml version="1.0" standalone="no"?><!DOCTYPE svg PUBLIC "-//W3C//DTD SVG 1.1//EN" "http://www.w3.org/Graphics/SVG/1.1/DTD/svg11.dtd"><svg t="1530511529620" class="icon" style="" viewBox="0 0 1024 1024" version="1.1" xmlns="http://www.w3.org/2000/svg" p-id="2720" xmlns:xlink="http://www.w3.org/1999/xlink" width="200" height="200"><defs><style type="text/css"></style></defs><path d="M958.144106 816.585043c0 78.526471-63.212694 142.190443-141.178393 142.190443H207.033263c-77.964676 0-141.178393-63.663972-141.178393-142.190443V202.254424c0-78.526471 63.212694-142.190443 141.178393-142.190443h609.93245c77.964676 0 141.178393 63.663972 141.178393 142.190443v614.330619z" fill="#515151" p-id="2721" data-spm-anchor-id="a313x.7781069.0.i2" class="selected"></path><path d="M828.733735 402.028353H376.885719c-0.587378 0-1.068332-0.480954-1.068331-1.068332v-114.108874c0-0.587378 0.480954-1.068332 1.068331-1.068332h451.849039c0.587378 0 1.068332 0.480954 1.068332 1.068332v114.108874a1.072425 1.072425 0 0 1-1.069355 1.068332zM828.733735 602.816378H376.885719c-0.587378 0-1.068332-0.480954-1.068331-1.068331V487.639173c0-0.587378 0.480954-1.068332 1.068331-1.068332h451.849039c0.587378 0 1.068332 0.480954 1.068332 1.068332v114.108874a1.072425 1.072425 0 0 1-1.069355 1.068331zM828.733735 803.604404H376.885719c-0.587378 0-1.068332-0.480954-1.068331-1.068331v-114.108875c0-0.587378 0.480954-1.068332 1.068331-1.068331h451.849039c0.587378 0 1.068332 0.480954 1.068332 1.068331v114.108875a1.072425 1.072425 0 0 1-1.069355 1.068331zM326.871629 402.028353h-104.622826a0.982374 0.982374 0 0 1-0.979304-0.979304V286.763143a0.982374 0.982374 0 0 1 0.979304-0.979304h104.622826a0.982374 0.982374 0 0 1 0.979304 0.979304v114.285906a0.982374 0.982374 0 0 1-0.979304 0.979304zM326.871629 602.816378h-104.622826a0.982374 0.982374 0 0 1-0.979304-0.979304V487.550145a0.982374 0.982374 0 0 1 0.979304-0.979304h104.622826a0.982374 0.982374 0 0 1 0.979304 0.979304v114.285906a0.982374 0.982374 0 0 1-0.979304 0.980327zM326.871629 803.604404h-104.622826a0.982374 0.982374 0 0 1-0.979304-0.979304V688.338171a0.982374 0.982374 0 0 1 0.979304-0.979304h104.622826a0.982374 0.982374 0 0 1 0.979304 0.979304v114.285906a0.982374 0.982374 0 0 1-0.979304 0.980327z" fill="#FFFFFF" p-id="2722"></path></svg>