<?xml version="1.0" standalone="no"?><!DOCTYPE svg PUBLIC "-//W3C//DTD SVG 1.1//EN" "http://www.w3.org/Graphics/SVG/1.1/DTD/svg11.dtd"><svg t="1530514462980" class="icon" style="" viewBox="0 0 1024 1024" version="1.1" xmlns="http://www.w3.org/2000/svg" p-id="1863" xmlns:xlink="http://www.w3.org/1999/xlink" width="200" height="200"><defs><style type="text/css"></style></defs><path d="M892.8 259.2l-128-128a16 16 0 0 0-17.6-3.2H184A56 56 0 0 0 128 184v656a56 56 0 0 0 56 56h652.8a59.2 59.2 0 0 0 59.2-59.2v-560a16 16 0 0 0-3.2-17.6z m-124.8-80l76.8 76.8h-49.6a27.2 27.2 0 0 1-27.2-27.2zM160 840v-656a24 24 0 0 1 24-24H304v704h-120a24 24 0 0 1-24-24z m704-3.2a27.2 27.2 0 0 1-27.2 27.2H336V160h400v68.8a59.2 59.2 0 0 0 59.2 59.2H864z" fill="#ffffff" p-id="1864"></path><path d="M672 464v-105.6a38.4 38.4 0 0 0-38.4-38.4H544a16 16 0 0 0 0 32h89.6a6.4 6.4 0 0 1 6.4 6.4V528h-48a16 16 0 0 0 0 32h112a16 16 0 0 0 0-32h-32v-32h104a8 8 0 0 1 8 8v209.6a6.4 6.4 0 0 1-6.4 6.4H672v-112a16 16 0 0 0-32 0v112H422.4a6.4 6.4 0 0 1-6.4-6.4V560h112a16 16 0 0 0 0-32h-112V358.4a6.4 6.4 0 0 1 6.4-6.4H480a16 16 0 0 0 0-32h-57.6a38.4 38.4 0 0 0-38.4 38.4v355.2a38.4 38.4 0 0 0 38.4 38.4h355.2a38.4 38.4 0 0 0 38.4-38.4V504a40 40 0 0 0-40-40z" fill="#ffffff" p-id="1865"></path></svg>